<?xml version="1.0"?>
<svg version="1.1" xmlns="http://www.w3.org/2000/svg" width="350" height="200" style=""><path fill="#376687" d="M22.42,97.06l2.94,0c3.64,0,6.16,1.54,6.16,4.844c0,2.436-1.148,3.92-3.36,4.62c2.632,0.756,4.004,2.324,4.004,4.48c0,4.116-2.744,5.796-7.28,5.796l-8.904,0l0-2.38l2.1-0.84l0-13.16l-2.1-0.84l0-2.38z M22.42,105.124l1.624,0c2.044,0,3.136-0.868,3.136-2.604c0-1.456-1.036-2.1-2.38-2.1l-2.38,0l0,4.704z M22.42,113.44l2.324,0c1.96,0,2.996-0.896,2.996-2.436c0-2.044-1.176-2.94-3.696-2.94l-1.624,0l0,5.376z M45.89828,116.8l-0.504-1.82s-2.156,2.1-4.536,2.1c-2.716,0-4.368-1.596-4.368-4.396c0-3.304,2.492-4.62,6.748-4.62l1.96,0l0-1.54c0-1.428-0.756-2.044-2.156-2.044c-1.428,0-2.464,0.42-2.464,0.42l-0.42,1.764l-2.52,0l-0.196-4.144s3.388-1.12,6.076-1.12c4.256,0,5.88,1.484,5.88,5.544l0,6.916l2.1,0.504l0,2.24z M45.19828,110.444l-1.596,0c-2.184,0-3.052,0.56-3.052,1.82c0,1.064,0.588,1.68,1.652,1.68c1.484,0,2.996-1.624,2.996-1.624l0-1.876z M65.48456,116.8l-0.252-1.484c-0.392,0.392-1.82,1.764-4.228,1.764c-3.92,0-5.74-2.856-5.74-7.476c0-5.264,2.52-8.204,7.644-8.204c0.672,0,1.484,0.14,2.1,0.28l0-3.556l-2.24-0.56l0-2.24l6.44-0.224l0,18.704l2.24,0.56l0,2.24z M65.00856,112.124l0-6.944c-0.532-0.252-1.372-0.42-2.184-0.42c-2.38,0-3.22,1.82-3.22,4.62c0,2.828,0.784,4.34,2.688,4.34c1.792,0,2.716-1.596,2.716-1.596z M84.48284,116.8l-0.504-1.82s-2.156,2.1-4.536,2.1c-2.716,0-4.368-1.596-4.368-4.396c0-3.304,2.492-4.62,6.748-4.62l1.96,0l0-1.54c0-1.428-0.756-2.044-2.156-2.044c-1.428,0-2.464,0.42-2.464,0.42l-0.42,1.764l-2.52,0l-0.196-4.144s3.388-1.12,6.076-1.12c4.256,0,5.88,1.484,5.88,5.544l0,6.916l2.1,0.504l0,2.24z M83.78284,110.444l-1.596,0c-2.184,0-3.052,0.56-3.052,1.82c0,1.064,0.588,1.68,1.652,1.68c1.484,0,2.996-1.624,2.996-1.624l0-1.876z M99.58912,101.68l0.252,1.932s2.016-2.212,3.892-2.212c1.54,0,2.604,0.504,2.604,0.504l-0.224,5.376l-2.52,0l-0.42-2.38c-1.624,0-3.024,1.568-3.024,1.568l0,7.392l2.8,0.7l0,2.24l-9.24,0l0-2.24l2.24-0.7l0-9.1l-2.24-0.7l0-2.24z M118.9514,116.8l-0.504-1.82s-2.156,2.1-4.536,2.1c-2.716,0-4.368-1.596-4.368-4.396c0-3.304,2.492-4.62,6.748-4.62l1.96,0l0-1.54c0-1.428-0.756-2.044-2.156-2.044c-1.428,0-2.464,0.42-2.464,0.42l-0.42,1.764l-2.52,0l-0.196-4.144s3.388-1.12,6.076-1.12c4.256,0,5.88,1.484,5.88,5.544l0,6.916l2.1,0.504l0,2.24z M118.2514,110.444l-1.596,0c-2.184,0-3.052,0.56-3.052,1.82c0,1.064,0.588,1.68,1.652,1.68c1.484,0,2.996-1.624,2.996-1.624l0-1.876z M140.31596,110.724l0.42,2.352s1.12,0.588,2.744,0.588c1.792,0,3.388-0.784,3.388-2.268c0-3.276-9.464-1.82-9.464-8.736c0-3.864,3.052-5.936,7.112-5.936c3.164,0,6.16,1.12,6.16,1.12l-0.14,5.096l-2.576,0l-0.7-2.38s-1.26-0.42-2.464-0.42c-1.988,0-2.968,0.868-2.968,1.988c0,3.248,9.436,1.96,9.436,8.54c0,4.2-3.248,6.496-7.56,6.496c-3.164,0-6.244-1.064-6.244-1.064l0-5.376l2.856,0z M165.13824,116.8l-0.504-1.82s-2.156,2.1-4.536,2.1c-2.716,0-4.368-1.596-4.368-4.396c0-3.304,2.492-4.62,6.748-4.62l1.96,0l0-1.54c0-1.428-0.756-2.044-2.156-2.044c-1.428,0-2.464,0.42-2.464,0.42l-0.42,1.764l-2.52,0l-0.196-4.144s3.388-1.12,6.076-1.12c4.256,0,5.88,1.484,5.88,5.544l0,6.916l2.1,0.504l0,2.24z M164.43824,110.444l-1.596,0c-2.184,0-3.052,0.56-3.052,1.82c0,1.064,0.588,1.68,1.652,1.68c1.484,0,2.996-1.624,2.996-1.624l0-1.876z M180.41252,113.86l2.52,0.7l0,2.24l-8.988,0l0-2.24l2.24-0.7l0-15.736l-2.24-0.56l0-2.24l6.468-0.224l0,18.76z M199.6628,110.164l-9.296,0c0.168,2.24,1.456,3.556,3.388,3.556c2.324,0,4.704-1.316,4.704-1.316l1.204,2.324s-2.8,2.352-6.384,2.352c-4.816,0-7.28-2.8-7.28-7.56c0-4.9,2.772-8.12,7.476-8.12c4.172,0,6.356,2.576,6.356,6.58c0,1.064-0.168,2.1-0.168,2.184z M190.4228,107.56l5.068,0c0-1.596-0.672-2.8-2.296-2.8c-1.568,0-2.548,1.148-2.772,2.8z M209.75708,95.1l0,8.204c0.812-0.672,2.632-1.904,4.704-1.904c2.856,0,4.396,1.904,4.396,5.04l0,7.42l1.96,0.7l0,2.24l-7.616,0l0-2.24l1.456-0.672l0-6.776c0-1.4-0.56-2.24-1.848-2.24c-1.568,0-3.052,1.484-3.052,1.484l0,7.504l1.484,0.7l0,2.24l-7.924,0l0-2.24l2.24-0.7l0-15.736l-2.24-0.56l0-2.24z"/><path fill="#" d=""/></svg>
